<?xml version="1.0" encoding="iso-8859-1"?>
<!-- Generator: Adobe Illustrator 19.0.0, SVG Export Plug-In . SVG Version: 6.00 Build 0)  -->
<svg version="1.1" id="Layer_1" xmlns="http://www.w3.org/2000/svg" xmlns:xlink="http://www.w3.org/1999/xlink" x="0px" y="0px"
	 viewBox="0 0 503.467 503.467" style="enable-background:new 0 0 503.467 503.467;" xml:space="preserve">
<g transform="translate(1 1)">
	<path style="fill:#FF7474;" d="M156.867,429.933c9.387,0,17.067,7.68,17.067,17.067s-7.68,17.067-17.067,17.067
		S139.8,456.387,139.8,447S147.48,429.933,156.867,429.933"/>
	<path style="fill:#AAB1BA;" d="M464.067,395.8V54.467c0-9.387-7.68-17.067-17.067-17.067H54.467C45.08,37.4,37.4,45.08,37.4,54.467
		V395.8H464.067z M498.2,37.4v426.667c0,18.773-15.36,34.133-34.133,34.133H37.4c-18.773,0-34.133-15.36-34.133-34.133V37.4
		c0-18.773,15.36-34.133,34.133-34.133h426.667C482.84,3.267,498.2,18.627,498.2,37.4L498.2,37.4z M173.933,447
		c0-9.387-7.68-17.067-17.067-17.067S139.8,437.613,139.8,447s7.68,17.067,17.067,17.067S173.933,456.387,173.933,447L173.933,447z"
		/>
	<path style="fill:#ECF4F7;" d="M464.067,54.467V395.8H37.4V54.467c0-9.387,7.68-17.067,17.067-17.067H447
		C456.387,37.4,464.067,45.08,464.067,54.467L464.067,54.467z"/>
	<polygon style="fill:#80D6FA;" points="310.467,216.6 208.067,276.333 208.067,156.867 	"/>
</g>
<path style="fill:#51565F;" d="M465.067,503.467H38.4c-21.333,0-38.4-17.067-38.4-38.4V38.4C0,17.067,17.067,0,38.4,0h426.667
	c21.333,0,38.4,17.067,38.4,38.4v426.667C503.467,486.4,486.4,503.467,465.067,503.467z M38.4,8.533
	C22.187,8.533,8.533,22.187,8.533,38.4v426.667c0,16.213,13.653,29.867,29.867,29.867h426.667c16.213,0,29.867-13.653,29.867-29.867
	V38.4c0-16.213-13.653-29.867-29.867-29.867H38.4z M157.867,469.333c-10.24,0-18.773-7.68-20.48-17.067H72.533
	c-2.56,0-4.267-1.707-4.267-4.267c0-2.56,1.707-4.267,4.267-4.267h64.853c1.707-9.387,10.24-17.067,20.48-17.067
	c10.24,0,18.773,7.68,20.48,17.067H448c2.56,0,4.267,1.707,4.267,4.267c0,2.56-1.707,4.267-4.267,4.267H178.347
	C176.64,461.653,168.107,469.333,157.867,469.333z M157.867,435.2c-6.827,0-12.8,5.973-12.8,12.8s5.973,12.8,12.8,12.8
	c6.827,0,12.8-5.973,12.8-12.8S164.693,435.2,157.867,435.2z M465.067,401.067H38.4c-2.56,0-4.267-1.707-4.267-4.267V55.467
	c0-11.947,9.387-21.333,21.333-21.333H448c11.947,0,21.333,9.387,21.333,21.333v307.2c0,2.56-1.707,4.267-4.267,4.267
	s-4.267-1.707-4.267-4.267v-307.2c0-6.827-5.973-12.8-12.8-12.8H55.467c-6.827,0-12.8,5.973-12.8,12.8v337.067h422.4
	c2.56,0,4.267,1.707,4.267,4.267S467.627,401.067,465.067,401.067z M209.067,281.6c-0.853,0-1.707,0-1.707-0.853
	c-1.707-0.853-2.56-2.56-2.56-3.413V157.867c0-1.707,0.853-2.56,2.56-3.413c1.707-0.853,2.56-0.853,4.267,0l102.4,59.733
	c1.707,0.853,1.707,2.56,1.707,3.413c0,0.853-0.853,2.56-1.707,3.413l-102.4,59.733C210.773,281.6,209.92,281.6,209.067,281.6z
	 M213.333,165.547v104.96l89.6-52.053L213.333,165.547z"/>
<g>
</g>
<g>
</g>
<g>
</g>
<g>
</g>
<g>
</g>
<g>
</g>
<g>
</g>
<g>
</g>
<g>
</g>
<g>
</g>
<g>
</g>
<g>
</g>
<g>
</g>
<g>
</g>
<g>
</g>
</svg>
